<svg version="1.1" id="icon" xmlns="http://www.w3.org/2000/svg" xmlns:xlink="http://www.w3.org/1999/xlink" x="0px" y="0px"
	 width="300px" height="300px" viewBox="0 0 300 300" style="enable-background:new 0 0 300 300;" xml:space="preserve">
<defs>
	<style type="text/css">

		.st0{fill:#DBA945;stroke:#414042;stroke-width:10;stroke-miterlimit:10;}
		.st1{fill:#FFE9C5;stroke:#414042;stroke-width:10;stroke-miterlimit:10;}
		.st2{fill:none;stroke:#FCE1BB;stroke-width:13;stroke-miterlimit:10;}
		.st3{fill:#FCE1BB;}
		.st4{fill:#FFFFFF;stroke:#414042;stroke-width:5;stroke-miterlimit:10;}
		.st5{fill:none;stroke:#414042;stroke-width:3;stroke-miterlimit:10;}
		.circle{fill:#FFFFFF;stroke:#414042;stroke-width:10;stroke-miterlimit:10; transition: .4s;}
		.st7{fill:#FF9C9C;stroke:#414042;stroke-width:10;stroke-miterlimit:10;}
		.st8{fill:#414042;}

		#icon:hover .circle{
			stroke:#A81D1D;
			fill:#EF6060;
			transition: .4s;
		}

		#icon.clicktrigger .circle{
			fill: #64CC54 !important;
			stroke: #1E5216;
			transition: .4s;
		}

	</style>

	<script type="text/javascript">
		var clickAnim = document.querySelector('#icon');
		
		clickAnim.addEventListener('click', function (){
			this.classList.toggle('clicktrigger');
		})
	</script>
</defs>
<circle class="circle" cx="150" cy="150" r="135"/>
<g>
	<path class="st3" d="M108.335,80.249c0.549,0.032,0.68,0.377,0.291,0.766L81.02,108.626c-0.389,0.389-0.733,0.258-0.766-0.291
		l-1.697-28.843c-0.032-0.549,0.391-0.972,0.939-0.939L108.335,80.249z"/>
	<path class="st2" d="M108.335,80.249c0.549,0.032,0.68,0.377,0.291,0.766L81.02,108.626c-0.389,0.389-0.733,0.258-0.766-0.291
		l-1.697-28.843c-0.032-0.549,0.391-0.972,0.939-0.939L108.335,80.249z"/>
</g>
<rect x="129.737" y="76.299" transform="matrix(0.7071 -0.7071 0.7071 0.7071 -63.0584 152.2376)" class="st0" width="45.001" height="151.876"/>
<rect x="190.144" y="199.988" transform="matrix(0.7071 -0.7071 0.7071 0.7071 -88.08 212.6452)" class="st7" width="45.002" height="25.312"/>
<polygon class="st1" points="234.854,96.968 96.968,234.854 65.146,203.032 94.315,173.865 203.032,65.146 "/>
<line class="st4" x1="78.406" y1="189.775" x2="94.315" y2="205.685"/>
<line class="st4" x1="88.127" y1="180.052" x2="97.852" y2="189.775"/>
<line class="st4" x1="96.967" y1="171.214" x2="112.876" y2="187.124"/>
<line class="st4" x1="106.689" y1="161.49" x2="116.413" y2="171.214"/>
<line class="st4" x1="116.413" y1="151.768" x2="132.322" y2="167.679"/>
<line class="st4" x1="126.135" y1="142.046" x2="135.857" y2="151.768"/>
<line class="st4" x1="134.973" y1="133.206" x2="150.884" y2="149.116"/>
<line class="st4" x1="144.697" y1="123.484" x2="154.419" y2="133.206"/>
<line class="st4" x1="156.187" y1="113.761" x2="172.098" y2="129.67"/>
<line class="st4" x1="165.909" y1="104.038" x2="175.633" y2="113.761"/>
<line class="st4" x1="174.749" y1="95.199" x2="190.659" y2="111.108"/>
<line class="st4" x1="184.471" y1="85.476" x2="194.194" y2="95.2"/>
<line class="st4" x1="193.606" y1="76.343" x2="209.516" y2="92.252"/>
<g>
	<path class="st8" d="M88.172,73.89c0.549,0.032,0.68,0.377,0.291,0.766L74.656,88.464c-0.389,0.389-0.733,0.258-0.766-0.291
		l-0.834-14.178c-0.032-0.549,0.391-0.972,0.939-0.939L88.172,73.89z"/>
	<path class="st5" d="M88.172,73.89c0.549,0.032,0.68,0.377,0.291,0.766L74.656,88.464c-0.389,0.389-0.733,0.258-0.766-0.291
		l-0.834-14.178c-0.032-0.549,0.391-0.972,0.939-0.939L88.172,73.89z"/>
</g>
</svg>
